<svg enable-background="new 0 0 48 48" viewBox="0 0 48 48" xmlns="http://www.w3.org/2000/svg"><g fill="#37474f"><path d="m38.5 44.6-4-4 2.1-2.1 4 4c.6.6.6 1.5 0 2.1-.5.5-1.5.5-2.1 0z"/><path d="m9.5 44.6 4-4-2.1-2.1-4 4c-.6.6-.6 1.5 0 2.1.5.5 1.5.5 2.1 0z"/></g><circle cx="24" cy="24" fill="#c62828" r="20"/><circle cx="24" cy="24" fill="#eee" r="16"/><path d="m19 22.1h.8v13h-.8z" fill="#e53935" transform="matrix(-.707 -.707 .707 -.707 12.904 62.537)"/><path d="m23 11h2v13h-2z"/><path d="m26.1 22.7h2.3v9.2h-2.3z" transform="matrix(-.707 .707 -.707 -.707 65.787 27.25)"/><circle cx="24" cy="24" r="2"/><circle cx="24" cy="24" fill="#c62828" r="1"/><g fill="#37474f"><path d="m22 1h4v3h-4z"/><g><path d="m44.4 16.2c2.5-3.5 2.1-8.4-1-11.5s-8-3.5-11.5-1z"/><path d="m3.6 16.2c-2.5-3.5-2.1-8.4 1-11.5s8-3.5 11.5-1z"/></g></g></svg>